<svg xmlns="http://www.w3.org/2000/svg" viewBox="0 0 512 512" fill="none">
  <rect width="512" height="512" fill="#000000"/>
  <g stroke="#f5f5f5" stroke-width="10" stroke-linecap="round" stroke-linejoin="round" fill="none">
    <!-- Aperture blade 1 (top) -->
    <path d="M205 70 C280 65, 350 100, 390 165 C340 145, 290 150, 256 175 C230 130, 215 95, 205 70"/>
    
    <!-- Aperture blade 2 (top-right) -->
    <path d="M420 120 C465 185, 470 265, 435 340 C420 285, 390 250, 350 235 C385 200, 410 160, 420 120"/>
    
    <!-- Aperture blade 3 (bottom-right) -->
    <path d="M455 380 C420 450, 350 490, 270 485 C320 460, 345 420, 345 370 C380 385, 425 385, 455 380"/>
    
    <!-- Aperture blade 4 (bottom) -->
    <path d="M230 490 C155 480, 90 430, 70 355 C115 390, 165 395, 215 375 C200 420, 205 460, 230 490"/>
    
    <!-- Aperture blade 5 (bottom-left) -->
    <path d="M55 310 C40 235, 65 160, 120 105 C100 160, 110 210, 145 250 C105 265, 70 285, 55 310"/>
    
    <!-- Aperture blade 6 (top-left) -->
    <path d="M100 75 C160 35, 240 30, 310 55 C260 70, 225 100, 210 145 C175 115, 135 90, 100 75"/>
    
    <!-- Center droplet -->
    <path d="M256 185 C295 225, 305 275, 295 310 C285 345, 260 365, 256 365 C252 365, 227 345, 217 310 C207 275, 217 225, 256 185"/>
  </g>
</svg>
